<?xml version="1.0" encoding="iso-8859-1"?>
<!-- Generator: Adobe Illustrator 19.0.0, SVG Export Plug-In . SVG Version: 6.00 Build 0)  -->
<svg version="1.1" id="Capa_1" xmlns="http://www.w3.org/2000/svg" xmlns:xlink="http://www.w3.org/1999/xlink" x="0px" y="0px"
	 viewBox="0 0 512 512" style="enable-background:new 0 0 512 512;" xml:space="preserve">
<g>
	<g fill="#3368FF">
		<path d="M512,170v-45c0-18.764-11.548-34.875-27.907-41.619C489.109,75.09,492,65.377,492,55c0-30.327-24.673-55-55-55
			c-30.327,0-55,24.673-55,55c0,10.377,2.891,20.09,7.907,28.381C373.548,90.125,362,106.236,362,125v33.787l-20.449,20.449
			C320.482,155.78,289.936,141,256,141c-33.936,0-64.482,14.78-85.551,38.236L150,158.787V125c0-18.764-11.548-34.875-27.907-41.618
			C127.109,75.09,130,65.377,130,55c0-30.327-24.673-55-55-55C44.673,0,20,24.673,20,55c0,10.377,2.891,20.09,7.907,28.382
			C11.548,90.125,0,106.236,0,125v45h118.787l34.44,34.44C145.41,219.957,141,237.472,141,256c0,33.936,14.78,64.482,38.236,85.551
			l-49.556,49.556C126.73,363.541,103.336,342,75,342c-30.327,0-55,24.673-55,55c0,10.377,2.891,20.09,7.907,28.382
			C11.548,432.125,0,448.236,0,467v45h150v-45c0-14.642-7.033-27.67-17.895-35.893l72.335-72.335
			C219.957,366.59,237.472,371,256,371s36.043-4.41,51.56-12.227l72.334,72.334C369.033,439.33,362,452.358,362,467v45h150v-45
			c0-18.764-11.548-34.875-27.907-41.619C489.109,417.09,492,407.377,492,397c0-30.327-24.673-55-55-55
			c-28.336,0-51.73,21.541-54.68,49.107l-49.556-49.556C356.22,320.482,371,289.936,371,256c0-18.528-4.41-36.043-12.227-51.56
			l34.44-34.44H512z M75,30c13.785,0,25,11.215,25,25S88.785,80,75,80c-13.785,0-25-11.215-25-25C50,41.215,61.215,30,75,30z
			 M120,140H30v-15c0-8.271,6.729-15,15-15h60c8.271,0,15,6.729,15,15V140z M75,372c13.785,0,25,11.215,25,25
			c0,13.785-11.215,25-25,25c-13.785,0-25-11.215-25-25C50,383.215,61.215,372,75,372z M120,482H30v-15c0-8.271,6.729-15,15-15h60
			c8.271,0,15,6.729,15,15V482z M437,372c13.785,0,25,11.215,25,25c0,13.785-11.215,25-25,25c-13.785,0-25-11.215-25-25
			C412,383.215,423.215,372,437,372z M392,467c0-8.271,6.729-15,15-15h60c8.271,0,15,6.729,15,15v15h-90V467z M172.352,271h29.085
			c1.215,20.931,4.972,41.26,11.191,58.063C191.834,316.672,176.765,295.664,172.352,271z M201.437,241h-29.085
			c4.412-24.664,19.482-45.672,40.276-58.063C206.41,199.74,202.652,220.069,201.437,241z M270.357,321.14
			C264.355,336.146,258.093,341,256,341c-2.092,0-8.355-4.854-14.357-19.86c-5.368-13.421-8.911-31.153-10.148-50.14h49.009
			C279.268,289.987,275.726,307.719,270.357,321.14z M231.495,241c1.237-18.987,4.779-36.718,10.148-50.14
			C247.645,175.854,253.908,171,256,171c2.093,0,8.355,4.854,14.357,19.86c5.369,13.421,8.911,31.152,10.147,50.14H231.495z
			 M299.371,329.063c6.219-16.803,9.976-37.132,11.191-58.063h29.085C335.235,295.664,320.166,316.672,299.371,329.063z
			 M310.563,241c-1.215-20.931-4.973-41.26-11.191-58.063c20.794,12.391,35.864,33.398,40.276,58.063H310.563z M437,30
			c13.785,0,25,11.215,25,25s-11.215,25-25,25c-13.785,0-25-11.215-25-25C412,41.215,423.215,30,437,30z M392,125
			c0-8.271,6.729-15,15-15h60c8.271,0,15,6.729,15,15v15h-90V125z"/>
	</g>
</g>
<g>
</g>
<g>
</g>
<g>
</g>
<g>
</g>
<g>
</g>
<g>
</g>
<g>
</g>
<g>
</g>
<g>
</g>
<g>
</g>
<g>
</g>
<g>
</g>
<g>
</g>
<g>
</g>
<g>
</g>
</svg>
