<?xml version="1.0" encoding="UTF-8"?>
<svg width="24px" height="24px" viewBox="0 0 24 24" version="1.1" xmlns="http://www.w3.org/2000/svg" xmlns:xlink="http://www.w3.org/1999/xlink">
    <!-- Generator: Sketch 50.2 (55047) - http://www.bohemiancoding.com/sketch -->
    <title>Jobs</title>
    <desc>Created with Sketch.</desc>
    <defs></defs>
    <g id="SVG" stroke="none" stroke-width="1" fill="none" fill-rule="evenodd">
        <g id="Jobs" transform="translate(-3.000000, -21.000000)" fill="#D8D8D8" fill-rule="nonzero">
            <g transform="translate(3.000000, 21.000000)" id="Shape">
                <path d="M20.916,18.5953846 C20.8436,18.6826154 20.8,18.8030769 20.8,18.9230769 C20.8,19.0430769 20.84,19.1630769 20.916,19.2507692 C20.9916,19.3338462 21.096,19.3846154 21.2,19.3846154 C21.304,19.3846154 21.408,19.3338462 21.484,19.2507692 C21.556,19.1630769 21.6,19.0430769 21.6,18.9230769 C21.6,18.8030769 21.556,18.6826154 21.484,18.5953846 C21.336,18.4292308 21.068,18.4246154 20.916,18.5953846 Z"></path>
                <path d="M9.4552,17.6598462 L8,16.8023077 L8,16.6236923 C8.6512,16.2133846 9.1092,15.5372308 9.3648,14.6090769 C9.7524,14.3723077 10,13.9107692 10,13.3929231 L10,12.9313846 C10,12.5035385 9.8276,12.1070769 9.5396,11.8467692 C9.29,10.1021538 8.2348,9.21784615 6.4,9.21784615 C6.3132,9.21784615 6.2284,9.222 6.1456,9.22938462 C5.7996,9.26030769 5.294,9.228 4.856,8.88738462 C4.692,8.76 4.5684,8.63630769 4.4892,8.52 C4.3548,8.32246154 4.35703125,9.52599519 4.15703125,9.62199519 C3.95663125,9.71707212 3.6104,8.67646154 3.6356,8.92569231 C3.6524,9.09738462 3.6776,9.29861538 3.7156,9.51876923 C3.7928,9.96876923 3.7928,9.96876923 3.6844,10.2378462 C3.6436,10.3398462 3.5932,10.464 3.534,10.6315385 C3.4016,11.0053846 3.3076,11.4147692 3.2536,11.8527692 C2.9696,12.1130769 2.8,12.5076923 2.8,12.9313846 L2.8,13.3929231 C2.8,13.9107692 3.0476,14.3723077 3.4352,14.6095385 C3.6908,15.5381538 4.1488,16.2143077 4.8,16.6241538 L4.8,16.7976923 L3.292,17.6547692 C2.7416,18.0013846 2.4,18.666 2.4,19.3896923 L2.4,20.0007692 C2.4,20.3713846 2.4,21.2390769 6.4,21.2390769 C10.4,21.2390769 10.4,20.3713846 10.4,20.0007692 L10.4,19.4266154 C10.4,18.6743077 10.038,17.9972308 9.4552,17.6598462 Z M9.6,19.8964615 C9.3508,20.0713846 8.3356,20.3155385 6.4,20.3155385 C4.4644,20.3155385 3.4492,20.0713846 3.2,19.8964615 L3.2,19.3892308 C3.2,19.0038462 3.3824,18.6493846 3.6604,18.474 L5.2036,17.5970769 C5.4444,17.4613846 5.6,17.1738462 5.6,16.8641538 L5.6,16.0315385 L5.3584,15.9110769 C4.7516,15.6101538 4.3572,15.0346154 4.1524,14.1507692 L4.0952,13.9052308 L3.8848,13.8295385 C3.7172,13.7695385 3.6,13.5895385 3.6,13.3929231 L3.6,12.9313846 C3.6,12.7638462 3.6828,12.6087692 3.8164,12.5266154 L4.004,12.4112308 L4.026,12.1675385 C4.0656,11.7341538 4.1492,11.3349231 4.2748,10.9813846 C4.328,10.8313846 4.3732,10.7192308 4.41,10.6273846 C4.5456,10.2909231 4.6215,10.5132981 4.5875,10.1574519 C5.0575,10.4676058 5.5956,10.2041538 6.2096,10.1501538 C6.2716,10.1441538 6.3352,10.1409231 6.4004,10.1409231 C7.898,10.1409231 8.6292,10.7667692 8.772,12.1712308 L8.7968,12.4126154 L8.9832,12.5256923 C9.1168,12.6073846 9.2,12.7624615 9.2,12.9313846 L9.2,13.3929231 C9.2,13.59 9.0828,13.7695385 8.9152,13.8295385 L8.7048,13.9052308 L8.6476,14.1507692 C8.4428,15.0346154 8.0484,15.6101538 7.4416,15.9110769 L7.2,16.0315385 L7.2,16.8678462 C7.2,17.1752308 7.3476,17.454 7.5856,17.5947692 L9.0928,18.4827692 C9.4068,18.6641538 9.6,19.0255385 9.6,19.4266154 L9.6,19.8964615 Z"></path>
                <path d="M12.4,11.5467692 L16.4,11.5467692 C16.6212,11.5467692 16.8,11.3404615 16.8,11.0852308 C16.8,10.83 16.6212,10.6236923 16.4,10.6236923 L12.4,10.6236923 C12.1788,10.6236923 12,10.83 12,11.0852308 C12,11.3404615 12.1788,11.5467692 12.4,11.5467692 Z"></path>
                <path d="M12.8,18.4698462 L12.4,18.4698462 C12.1788,18.4698462 12,18.6761538 12,18.9313846 C12,19.1866154 12.1788,19.3929231 12.4,19.3929231 L12.8,19.3929231 C13.0212,19.3929231 13.2,19.1866154 13.2,18.9313846 C13.2,18.6761538 13.0212,18.4698462 12.8,18.4698462 Z"></path>
                <path d="M15.2,18.4698462 L14.4,18.4698462 C14.1788,18.4698462 14,18.6761538 14,18.9313846 C14,19.1866154 14.1788,19.3929231 14.4,19.3929231 L15.2,19.3929231 C15.4212,19.3929231 15.6,19.1866154 15.6,18.9313846 C15.6,18.6761538 15.4212,18.4698462 15.2,18.4698462 Z"></path>
                <path d="M17.2,18.4698462 L16.8,18.4698462 C16.5788,18.4698462 16.4,18.6761538 16.4,18.9313846 C16.4,19.1866154 16.5788,19.3929231 16.8,19.3929231 L17.2,19.3929231 C17.4212,19.3929231 17.6,19.1866154 17.6,18.9313846 C17.6,18.6761538 17.4212,18.4698462 17.2,18.4698462 Z"></path>
                <path d="M19.6,18.4698462 L18.8,18.4698462 C18.5788,18.4698462 18.4,18.6761538 18.4,18.9313846 C18.4,19.1866154 18.5788,19.3929231 18.8,19.3929231 L19.6,19.3929231 C19.8212,19.3929231 20,19.1866154 20,18.9313846 C20,18.6761538 19.8212,18.4698462 19.6,18.4698462 Z"></path>
                <path d="M21.2,13.3929231 L12.4,13.3929231 C12.1788,13.3929231 12,13.5992308 12,13.8544615 C12,14.1096923 12.1788,14.316 12.4,14.316 L21.2,14.316 C21.4212,14.316 21.6,14.1096923 21.6,13.8544615 C21.6,13.5992308 21.4212,13.3929231 21.2,13.3929231 Z"></path>
                <path d="M21.2,16.1621538 L12.4,16.1621538 C12.1788,16.1621538 12,16.3684615 12,16.6236923 C12,16.8789231 12.1788,17.0852308 12.4,17.0852308 L21.2,17.0852308 C21.4212,17.0852308 21.6,16.8789231 21.6,16.6236923 C21.6,16.3684615 21.4212,16.1621538 21.2,16.1621538 Z"></path>
                <path d="M22.1288,4.61538462 L14.8,4.61538462 L14.8,1.06753846 C14.8,0.478615385 14.3852,0 13.8748,0 L10.1248,0 C9.6148,0 9.2,0.478615385 9.2,1.06753846 L9.2,4.61538462 L1.8712,4.61538462 C0.8396,4.61538462 0,5.58415385 0,6.77446154 L0,21.8413846 C0,23.0312308 0.8396,24 1.8712,24 L22.1292,24 C23.1604,24 24,23.0312308 24,21.8409231 L24,6.77446154 C24,5.58415385 23.1604,4.61538462 22.1288,4.61538462 Z M10,1.06753846 C10,0.988153846 10.0564,0.923076923 10.1248,0.923076923 L13.8748,0.923076923 C13.9436,0.923076923 14,0.988153846 14,1.06753846 L14,4.61538462 L14,7.24061538 C14,7.31953846 13.9436,7.38461538 13.8748,7.38461538 L10.1248,7.38461538 C10.0564,7.38461538 10,7.31953846 10,7.24061538 L10,4.61538462 L10,1.06753846 Z M23.2,21.8409231 C23.2,22.5226154 22.7196,23.0769231 22.1288,23.0769231 L1.8712,23.0769231 C1.2804,23.0769231 0.8,22.5226154 0.8,21.8409231 L0.8,6.77446154 C0.8,6.09276923 1.2804,5.53846154 1.8712,5.53846154 L9.2,5.53846154 L9.2,7.24061538 C9.2,7.82907692 9.6148,8.30769231 10.1248,8.30769231 L13.8748,8.30769231 C14.3852,8.30769231 14.8,7.82907692 14.8,7.24061538 L14.8,5.53846154 L22.1288,5.53846154 C22.7196,5.53846154 23.2,6.09276923 23.2,6.77446154 L23.2,21.8409231 Z"></path>
                <path d="M12,5.07692308 C12.8824,5.07692308 13.6,4.24892308 13.6,3.23076923 C13.6,2.21261538 12.8824,1.38461538 12,1.38461538 C11.1176,1.38461538 10.4,2.21261538 10.4,3.23076923 C10.4,4.24892308 11.1176,5.07692308 12,5.07692308 Z M12,2.30769231 C12.4412,2.30769231 12.8,2.72169231 12.8,3.23076923 C12.8,3.73984615 12.4412,4.15384615 12,4.15384615 C11.5588,4.15384615 11.2,3.73984615 11.2,3.23076923 C11.2,2.72169231 11.5588,2.30769231 12,2.30769231 Z"></path>
            </g>
        </g>
    </g>
</svg>